#!OML:ASF F:\VICON\USERDATA\INSTALL\rory3\rory3.ASF
:FULLY-SPECIFIED
:DEGREES
773
root 0.338227 17.6014 6.61126 8.18764 31.9324 5.95579
lowerback 25.9285 0.228866 0.194594
upperback 5.80238 0.588846 0.865284
thorax -7.95432 0.349829 0.645607
lowerneck -16.3852 -13.7345 -15.7123
upperneck 13.0191 -18.4253 17.9497
head 10.0886 -7.91999 5.86076
rclavicle -2.50469e-014 1.90833e-014
rhumerus -7.96511 22.2209 -81.4421
rradius 36.283
rwrist 6.73267
rhand -20.2143 9.01237
rfingers 7.12502
rthumb 6.13293 -20.8789
lclavicle -2.50469e-014 1.90833e-014
lhumerus -26.164 -28.6429 99.5912
lradius 54.0657
lwrist 4.04907
lhand -26.8296 26.8259
lfingers 7.12502
lthumb -0.255539 56.8055
rfemur -33.0783 -16.4882 20.6002
rtibia 43.1478
rfoot -10.9448 -12.5993
rtoes 11.5554
lfemur -26.4996 -3.38706 -16.7499
ltibia 23.25
lfoot -1.5007 -6.71195
ltoes -10.5296
774
root 0.327983 17.622 6.61173 7.81528 31.66 5.90732
lowerback 25.4883 0.236356 0.0453418
upperback 5.72861 0.545321 0.797237
thorax -7.8137 0.329107 0.67164
lowerneck -16.3743 -13.8138 -15.7354
upperneck 12.8662 -18.5427 18.0822
head 10.0738 -7.9688 5.88444
rclavicle -1.74931e-014 1.11319e-014
rhumerus -8.33211 21.8757 -81.5597
rradius 36.5989
rwrist 6.62421
rhand -20.2439 9.09328
rfingers 7.12502
rthumb 6.10438 -20.7988
lclavicle -1.74931e-014 1.11319e-014
lhumerus -26.2507 -27.7758 99.3376
lradius 54.0957
lwrist 3.75956
lhand -27.0651 26.3972
lfingers 7.12502
lthumb -0.483001 56.3764
rfemur -32.443 -16.4258 20.5778
rtibia 42.6406
rfoot -10.8148 -12.3605
rtoes 11.3246
lfemur -25.6758 -3.41065 -16.6871
ltibia 22.9073
lfoot -2.56542 -6.33842
ltoes -10.1826
775
root 0.322775 17.646 6.61756 7.39674 31.3801 5.9376
lowerback 25.1063 0.208158 -0.144054
upperback 5.68159 0.444987 0.6915
thorax -7.67105 0.28208 0.696467
lowerneck -16.3515 -13.8639 -15.7205
upperneck 12.7462 -18.6208 18.1538
head 10.0497 -8.0029 5.89023
rclavicle -7.07673e-014 3.26007e-014
rhumerus -8.70793 21.6525 -81.739
rradius 36.9152
rwrist 6.58023
rhand -20.8231 9.27477
rfingers 7.12502
rthumb 5.54517 -20.6327
lclavicle -7.07673e-014 3.26007e-014
lhumerus -26.3851 -26.6329 99.0383
lradius 54.1776
lwrist 3.55395
lhand -26.9212 26.2141
lfingers 7.12502
lthumb -0.343962 56.1936
rfemur -31.6701 -16.4537 20.4469
rtibia 42.1123
rfoot -10.7183 -12.0335
rtoes 11.239
lfemur -24.8078 -3.33882 -16.7587
ltibia 22.7537
lfoot -3.62431 -5.99237
ltoes -10.2118
776
root 0.315483 17.6672 6.62089 7.03122 31.1811 5.976
lowerback 24.9134 0.139207 -0.260872
upperback 5.49478 0.311013 0.590523
thorax -7.7779 0.217481 0.694419
lowerneck -16.2309 -13.9416 -15.7739
upperneck 12.6273 -18.7372 18.234
head 10.0234 -8.06278 5.90568
rclavicle -1.98785e-014 -1.59028e-015
rhumerus -9.35242 21.2753 -82.0307
rradius 37.2522
rwrist 6.64181
rhand -21.9947 9.74473
rfingers 7.12502
rthumb 4.41391 -20.1893
lclavicle -1.98785e-014 -1.59028e-015
lhumerus -26.6498 -25.6839 98.86
lradius 54.3032
lwrist 3.23852
lhand -26.5339 27.2321
lfingers 7.12502
lthumb 0.0301009 57.2118
rfemur -30.9373 -16.4409 20.3162
rtibia 41.5645
rfoot -10.595 -11.8385
rtoes 11.6137
lfemur -24.0829 -3.27388 -16.8594
ltibia 22.7727
lfoot -4.6417 -5.36868
ltoes -12.0866
777
root 0.305221 17.6863 6.61657 6.658 30.9185 5.82697
lowerback 24.7298 0.111503 -0.245577
upperback 5.26554 0.268375 0.554054
thorax -7.93736 0.194073 0.659193
lowerneck -16.1371 -14.0231 -15.8864
upperneck 12.5323 -18.8508 18.3399
head 10.0193 -8.11946 5.93867
rclavicle -4.77083e-014 -1.11319e-014
rhumerus -10.0589 20.7734 -82.306
rradius 37.5467
rwrist 6.66593
rhand -22.5582 10.0481
rfingers 7.12502
rthumb 3.86972 -19.8965
lclavicle -4.77083e-014 -1.11319e-014
lhumerus -26.9027 -24.9945 98.7553
lradius 54.3338
lwrist 3.0045
lhand -26.5454 27.7272
lfingers 7.12502
lthumb 0.0189497 57.7069
rfemur -30.3566 -16.2568 20.3855
rtibia 41.0162
rfoot -10.4183 -11.7105
rtoes 12.0815
lfemur -23.4987 -3.05525 -16.8171
ltibia 23.023
lfoot -5.65116 -4.39913
ltoes -14.0003
778
root 0.295632 17.7059 6.6108 6.31801 30.6342 5.76924
lowerback 24.4842 0.0878811 -0.292178
upperback 5.08547 0.212991 0.48285
thorax -8.01001 0.165719 0.62515
lowerneck -16.0912 -14.0733 -15.9639
upperneck 12.5517 -18.9257 18.3793
head 10.0446 -8.15582 5.95038
rclavicle 7.27552e-014 -5.32743e-014
rhumerus -10.6492 20.4164 -82.5273
rradius 37.7635
rwrist 6.56876
rhand -22.3712 10.0076
rfingers 7.12502
rthumb 4.05031 -19.9336
lclavicle 7.27552e-014 -5.32743e-014
lhumerus -27.0031 -24.3921 98.541
lradius 54.1533
lwrist 3.0502
lhand -27.0642 26.5066
lfingers 7.12502
lthumb -0.482131 56.4858
rfemur -29.7758 -16.0893 20.3539
rtibia 40.4699
rfoot -10.2146 -11.5128
rtoes 12.3416
lfemur -22.9409 -2.61871 -16.9446
ltibia 23.5691
lfoot -6.52023 -3.36919
ltoes -15.3839
779
root 0.285533 17.7233 6.6048 5.99635 30.4147 5.83875
lowerback 24.2645 0.0502199 -0.438909
upperback 4.92852 0.114948 0.40282
thorax -8.0693 0.119629 0.651686
lowerneck -16.0082 -14.1573 -16.1325
upperneck 12.5736 -19.0455 18.4754
head 10.0893 -8.21441 5.98773
rclavicle 3.69739e-014 2.38542e-015
rhumerus -11.1132 20.1065 -82.683
rradius 37.8191
rwrist 6.5515
rhand -22.5746 10.1618
rfingers 7.12502
rthumb 3.85392 -19.7831
lclavicle 3.69739e-014 2.38542e-015
lhumerus -27.051 -23.6757 98.3012
lradius 53.9072
lwrist 3.06321
lhand -27.3403 24.9285
lfingers 7.12502
lthumb -0.748777 54.907
rfemur -29.126 -15.9934 20.1913
rtibia 39.9237
rfoot -10.0256 -11.352
rtoes 12.0717
lfemur -22.3896 -2.07381 -17.2372
ltibia 24.3851
lfoot -7.19019 -2.60481
ltoes -16.1851
780
root 0.273826 17.7398 6.59868 5.54943 30.181 5.78452
lowerback 24.0815 0.0243891 -0.543524
upperback 4.81262 0.0482519 0.367898
thorax -8.10202 0.0883524 0.69376
lowerneck -15.8944 -14.2293 -16.2343
upperneck 12.553 -19.1517 18.5282
head 10.0988 -8.27064 6.00361
rclavicle 4.41302e-014 -3.73715e-014
rhumerus -11.5442 19.6992 -82.8086
rradius 37.8728
rwrist 6.54308
rhand -22.985 10.3867
rfingers 7.12502
rthumb 3.45758 -19.565
lclavicle 4.41302e-014 -3.73715e-014
lhumerus -27.1072 -22.872 98.0672
lradius 53.819
lwrist 3.03562
lhand -27.1873 24.4452
lfingers 7.12502
lthumb -0.600959 54.4241
rfemur -28.3976 -15.7846 20.1384
rtibia 39.3756
rfoot -9.7908 -11.3152
rtoes 11.7722
lfemur -21.8078 -1.45455 -17.4152
ltibia 25.3839
lfoot -7.61537 -2.07415
ltoes -15.76
781
root 0.263762 17.7579 6.59142 5.06928 29.9307 5.64968
lowerback 23.9066 -0.0460503 -0.591787
upperback 4.68439 -0.0613316 0.344027
thorax -8.15151 0.0355595 0.72846
lowerneck -15.7349 -14.2632 -16.2563
upperneck 12.5531 -19.2116 18.4879
head 10.078 -8.31212 5.98731
rclavicle 1.38752e-013 -2.94201e-014
rhumerus -12.0535 19.4437 -82.9842
rradius 38.0587
rwrist 6.38228
rhand -23.376 10.4999
rfingers 7.12502
rthumb 3.08003 -19.4576
lclavicle 1.38752e-013 -2.94201e-014
lhumerus -27.149 -22.0932 97.8046
lradius 53.8806
lwrist 3.16677
lhand -26.8953 25.2986
lfingers 7.12502
lthumb -0.318949 55.2781
rfemur -27.674 -15.6079 20.177
rtibia 38.8145
rfoot -9.48088 -11.2084
rtoes 11.6894
lfemur -21.2878 -0.944404 -17.4865
ltibia 26.603
lfoot -7.94661 -1.55576
ltoes -14.3827
782
root 0.255933 17.7755 6.58075 4.72585 29.6774 5.66621
lowerback 23.6626 -0.0951015 -0.746166
upperback 4.56258 -0.168577 0.322752
thorax -8.15711 -0.0137712 0.825545
lowerneck -15.5981 -14.3685 -16.4877
upperneck 12.6231 -19.3593 18.5634
head 10.1395 -8.3901 6.02346
rclavicle 9.93923e-015 2.06736e-014
rhumerus -12.4922 19.0767 -83.0632
rradius 38.1956
rwrist 6.14347
rhand -23.7758 10.6571
rfingers 7.12502
rthumb 2.69388 -19.3056
lclavicle 9.93923e-015 2.06736e-014
lhumerus -27.1322 -21.4066 97.6408
lradius 54.0069
lwrist 3.32913
lhand -26.3808 26.9839
lfingers 7.12502
lthumb 0.177986 56.9636
rfemur -27.0143 -15.5034 20.0702
rtibia 38.224
rfoot -9.17838 -11.0644
rtoes 11.5686
lfemur -20.8621 -0.499331 -17.7028
ltibia 28.0358
lfoot -8.34815 -1.01472
ltoes -12.4492
783
root 0.246036 17.7946 6.56663 4.38033 29.4256 5.6372
lowerback 23.4373 -0.136 -0.838343
upperback 4.42183 -0.249848 0.303636
thorax -8.19334 -0.0519425 0.88131
lowerneck -15.4286 -14.4631 -16.741
upperneck 12.6928 -19.5095 18.7134
head 10.2088 -8.4659 6.09054
rclavicle 2.90226e-014 -5.56597e-015
rhumerus -12.8896 18.6328 -83.102
rradius 38.2903
rwrist 5.79275
rhand -23.9572 10.6946
rfingers 7.12502
rthumb 2.51871 -19.2703
lclavicle 2.90226e-014 -5.56597e-015
lhumerus -27.2017 -20.8101 97.4949
lradius 54.1587
lwrist 3.40218
lhand -26.287 28.4723
lfingers 7.12502
lthumb 0.26853 58.4519
rfemur -26.3628 -15.3371 20.0106
rtibia 37.6012
rfoot -8.9036 -10.9783
rtoes 11.2903
lfemur -20.49 0.254284 -17.9541
ltibia 29.6667
lfoot -8.75791 -0.564241
ltoes -12.7154
